<?xml version="1.0" encoding="UTF-8"?><svg id="a" xmlns="http://www.w3.org/2000/svg" viewBox="0 0 826.95 200"><g><path d="M120.34,69.31v5.11h-28.52v73.7h-13.25V74.42h-28.57v-5.11H120.34Z" style="fill:#fff;"/><path d="M134.68,69.31h27.27c4.74,0,8.91,.5,12.47,1.54,3.56,1.02,6.53,2.45,8.91,4.28,2.37,1.82,4.16,4,5.37,6.49,1.2,2.52,1.82,5.26,1.82,8.25,0,2.44-.47,4.75-1.41,6.87-.91,2.12-2.22,4.05-3.92,5.76-1.71,1.73-3.74,3.2-6.11,4.48-2.39,1.25-5.02,2.22-7.87,2.92l28.69,38.22h-15.33l-27.4-37.05h-9.26v37.05h-13.24V69.31Zm13.24,37.79h7.63c2.98,0,5.72-.4,8.23-1.18,2.5-.8,4.67-1.93,6.54-3.36,1.84-1.46,3.29-3.23,4.32-5.32,1.05-2.07,1.56-4.38,1.56-6.95,0-2.34-.41-4.49-1.27-6.48-.81-1.97-1.95-3.68-3.42-5.09-1.47-1.42-3.22-2.52-5.26-3.31-2.04-.78-4.27-1.19-6.68-1.19h-11.65v32.87Z" style="fill:#fff;"/><path d="M245.51,150c-4.07,0-7.97-.49-11.71-1.52-3.73-1-7.21-2.4-10.43-4.19-3.18-1.82-6.11-4-8.75-6.54-2.66-2.54-4.89-5.37-6.74-8.46-1.85-3.11-3.28-6.42-4.3-9.97-1.01-3.53-1.52-7.24-1.52-11.08s.51-7.39,1.52-10.84c1.02-3.49,2.46-6.73,4.3-9.74,1.85-3.01,4.08-5.76,6.74-8.23,2.64-2.49,5.57-4.6,8.75-6.38,3.22-1.76,6.69-3.13,10.43-4.1,3.74-.97,7.64-1.44,11.71-1.44s7.98,.47,11.7,1.44c3.76,.97,7.21,2.33,10.42,4.1,3.21,1.78,6.13,3.89,8.78,6.38,2.65,2.47,4.88,5.22,6.73,8.23,1.85,3.01,3.28,6.25,4.28,9.74,1.03,3.45,1.54,7.09,1.54,10.84s-.5,7.48-1.54,11.06c-1.01,3.58-2.43,6.89-4.28,9.99-1.85,3.08-4.09,5.92-6.73,8.46-2.64,2.54-5.57,4.72-8.78,6.54-3.21,1.8-6.66,3.19-10.42,4.19-3.72,1.02-7.63,1.52-11.7,1.52Zm0-3.96c4.49,0,8.47-.96,11.94-2.84,3.48-1.87,6.38-4.5,8.74-7.86,2.34-3.35,4.15-7.34,5.37-11.97,1.23-4.61,1.84-9.67,1.84-15.13s-.61-10.34-1.84-14.85c-1.22-4.51-3.03-8.39-5.37-11.66-2.36-3.26-5.26-5.8-8.74-7.61-3.46-1.8-7.45-2.71-11.94-2.71s-8.65,.91-12.14,2.71c-3.48,1.81-6.4,4.34-8.74,7.61-2.33,3.27-4.1,7.14-5.28,11.66-1.21,4.51-1.78,9.46-1.78,14.85s.57,10.53,1.78,15.13c1.18,4.62,2.95,8.62,5.28,11.97,2.34,3.36,5.26,6,8.74,7.86,3.49,1.88,7.54,2.84,12.14,2.84Z" style="fill:#fff;"/><path d="M301.8,69.31h13.21v51.13c0,3.39,.59,6.52,1.74,9.49,1.15,2.97,2.79,5.56,4.95,7.79,2.15,2.21,4.72,3.97,7.74,5.23,3.04,1.32,6.41,1.96,10.15,1.96s7.16-.64,10.17-1.96c3.02-1.26,5.57-3.02,7.69-5.23,2.13-2.23,3.73-4.82,4.86-7.79,1.13-2.97,1.7-6.1,1.7-9.49v-51.13h5.82v51.13c0,4.04-.63,7.85-1.94,11.42-1.31,3.56-3.35,6.7-6.13,9.37-2.8,2.72-6.37,4.85-10.72,6.4-4.36,1.58-9.6,2.36-15.7,2.36-5.43,0-10.25-.79-14.43-2.36-4.18-1.55-7.69-3.7-10.53-6.41-2.81-2.72-4.97-5.89-6.42-9.52-1.45-3.6-2.16-7.44-2.16-11.52v-50.87Z" style="fill:#fff;"/><path d="M394.76,69.31l29.7,62.7,27.67-62.7h6.28l-35.81,80.69h-3.41l-38.41-80.69h13.98Z" style="fill:#fff;"/><path d="M521.05,69.31v5.11h-41.5v28.16h27.77v5.1h-27.77v35.36h41.5v5.07h-54.75V69.31h54.75Z" style="fill:#fff;"/><polygon points="488.55 62.76 496.2 62.76 510.49 50 497.22 50 488.55 62.76" style="fill:#fff;"/></g><g><path d="M571.05,69.23h9.26c4.58,0,7.35,2.21,7.35,5.85,0,2.76-1.59,4.19-3.67,4.91v.07c2.57,.49,4.62,2.41,4.62,5.75,0,4.39-3.06,6.66-7.67,6.66h-9.88v-23.24Zm9.72,9.98c3.18,0,4.42-1.59,4.42-3.9s-1.43-4-4.42-4h-7.35v7.9h7.35Zm.23,11.18c3.71,0,5.14-1.89,5.14-4.58s-1.79-4.52-4.55-4.52h-8.16v9.1h7.57Z" style="fill:#fff;"/><path d="M592.47,80.84c0-6.99,4.45-12.03,11.15-12.03s11.18,5.04,11.18,12.03-4.48,12.06-11.18,12.06-11.15-5.07-11.15-12.06Zm19.86,0c0-5.49-2.96-9.95-8.71-9.95s-8.68,4.45-8.68,9.95,2.96,9.98,8.68,9.98,8.71-4.48,8.71-9.98Z" style="fill:#fff;"/><path d="M628.39,92.89c-6.08,0-8.74-3.31-8.74-8.25v-15.41h2.37v15.41c0,4.16,2.08,6.17,6.37,6.17s6.37-2.01,6.37-6.17v-15.41h2.37v15.41c0,4.94-2.67,8.25-8.74,8.25Z" style="fill:#fff;"/><path d="M649.03,71.31h-7.93v-2.08h18.17v2.08h-7.9v21.16h-2.34v-21.16Z" style="fill:#fff;"/><path d="M666.03,69.23v23.24h-2.37v-23.24h2.37Z" style="fill:#fff;"/><path d="M671.04,80.84c0-6.99,4.45-12.03,11.15-12.03s11.18,5.04,11.18,12.03c0,3.45-1.11,6.44-2.99,8.58l2.79,2.8-1.49,1.5-2.86-2.89c-1.82,1.33-4.06,2.08-6.63,2.08-6.7,0-11.15-5.07-11.15-12.06Zm16.22,8.42l-3.19-3.18,1.5-1.46,3.18,3.19c1.43-1.79,2.15-4.26,2.15-6.96,0-5.49-2.96-9.95-8.71-9.95s-8.68,4.45-8.68,9.95,2.96,9.98,8.68,9.98c2.05,0,3.74-.55,5.07-1.56Z" style="fill:#fff;"/><path d="M706.95,92.89c-6.08,0-8.74-3.31-8.74-8.25v-15.41h2.37v15.41c0,4.16,2.08,6.17,6.37,6.17s6.37-2.01,6.37-6.17v-15.41h2.37v15.41c0,4.94-2.67,8.25-8.74,8.25Z" style="fill:#fff;"/><path d="M735.88,79.31v2.08h-11.93v9h13.75v2.08h-16.12v-23.24h15.76v2.08h-13.39v8h11.93Z" style="fill:#fff;"/></g><g><path d="M571.05,124.88h8.39c6.5,0,10.11,4.49,10.11,11.67s-3.67,11.57-10.17,11.57h-8.32v-23.24Zm2.37,21.16h5.95c5.82,0,7.7-4.36,7.7-9.49s-1.82-9.59-7.64-9.59h-6.01v19.08Z" style="fill:#fff;"/><path d="M608.85,134.95v2.08h-11.93v9h13.75v2.08h-16.12v-23.24h15.76v2.08h-13.39v8h11.93Z" style="fill:#fff;"/></g><g><path d="M643.12,126.96h-7.93v-2.08h18.17v2.08h-7.9v21.16h-2.34v-21.16Z" style="fill:#fff;"/><path d="M656.45,141.68l-2.34,6.44h-2.44l8.68-23.24h2.67l8.78,23.24h-2.57l-2.31-6.44h-10.47Zm9.69-2.11l-4.42-12.45h-.07l-4.42,12.45h8.91Z" style="fill:#fff;"/><path d="M678.16,124.88v21.16h12.51v2.08h-14.89v-23.24h2.37Z" style="fill:#fff;"/><path d="M709.5,134.95v2.08h-11.93v9h13.75v2.08h-16.12v-23.24h15.76v2.08h-13.39v8h11.93Z" style="fill:#fff;"/><path d="M716.06,124.88h2.89l12.58,19.89h.07v-19.89h2.34v23.24h-2.89l-12.54-19.89h-.07v19.89h-2.37v-23.24Z" style="fill:#fff;"/><path d="M746.23,126.96h-7.93v-2.08h18.17v2.08h-7.9v21.16h-2.34v-21.16Z" style="fill:#fff;"/><path d="M776.65,141.78c0,3.77-2.6,6.76-8.13,6.76s-9.62-2.89-9.95-8.12h2.47c.33,3.61,2.54,6.04,7.38,6.04,4.29,0,5.75-2.05,5.75-4.61,.03-3.45-2.41-4.03-7.15-5.1-3.8-.88-7.48-2.05-7.48-6.31,0-3.71,2.96-5.98,7.7-5.98,5.07,0,8.26,2.57,8.61,7.12h-2.47c-.39-3.22-2.18-5.04-6.11-5.04-3.41,0-5.27,1.4-5.27,3.8,0,3.12,2.76,3.77,6.18,4.52,4.75,1.04,8.45,2.21,8.45,6.92Z" style="fill:#fff;"/></g></svg>